<svg width="127" height="52" viewBox="0 0 127 52" fill="none" xmlns="http://www.w3.org/2000/svg">
<path fill-rule="evenodd" clip-rule="evenodd" d="M8.20947 45.381C8.20947 48.7026 10.6193 51.4578 13.7882 52V6.61898C13.7882 3.29744 11.3784 0.542211 8.20947 0V45.381ZM21.9977 45.381C21.9977 48.7026 19.5879 51.4578 16.4189 52V6.61898C16.4189 3.29744 18.8288 0.542211 21.9977 0V45.381ZM0 13.4348C3.16892 13.977 5.57874 16.7322 5.57874 20.0538V42.4049C2.19696 39.7219 0.0401637 35.6453 0.0401637 31.0827L0 13.4308V13.4348ZM30.2071 13.6637C27.0382 14.2019 24.6284 16.9611 24.6284 20.2827V42.6338C28.0102 39.9509 30.167 35.8783 30.167 31.3157L30.2071 13.6637Z" fill="#E13551"/>
<path fill-rule="evenodd" clip-rule="evenodd" d="M61.2203 36.5054H56.0985C56.1736 35.7505 56.3655 35.0707 56.8701 34.4868C57.3498 33.9487 57.9838 33.6818 58.7595 33.6818C59.5353 33.6818 60.1317 33.9445 60.5697 34.4701C61.0035 34.9831 61.2203 35.6337 61.2203 36.4137V36.5013V36.5054ZM62.3506 41.7732C61.3747 42.1278 60.3111 42.4114 59.26 42.4114C57.6167 42.4114 56.3613 41.9442 55.5021 40.9975C54.6554 40.0924 54.2342 38.8119 54.2342 37.1603C54.2342 35.7547 54.6346 34.591 55.4354 33.6818C56.282 32.735 57.404 32.2637 58.7929 32.2637C61.6666 32.2637 63.093 34.1155 63.093 37.7233V37.8109H56.2862C56.3238 39.5168 57.6292 40.8139 59.3435 40.8139C59.773 40.8139 60.2819 40.7264 60.8658 40.5428C61.4748 40.3593 61.8752 40.1675 62.3506 39.7587V41.7732ZM49.4752 35.4377C51.1436 35.7088 52.2322 36.9059 52.2322 38.6284C52.2322 41.0183 50.5054 42.1861 47.1729 42.1861H43.5985V28.9729H47.2188C50.2927 28.9729 51.8901 30.0865 51.8901 32.3513C51.8901 33.907 51.0727 34.933 49.4752 35.4377ZM45.6464 40.4761H46.9602C49.079 40.4761 50.0675 39.7796 50.0675 38.4491C50.0675 36.9976 49.0123 36.2469 46.7683 36.2469H45.6464V40.4761ZM45.6464 34.541H46.589C47.6943 34.541 48.4659 34.4325 48.908 34.2282C49.5253 33.9445 49.8423 33.3898 49.8423 32.5348C49.8423 31.3086 49.0998 30.6871 47.5274 30.6871H45.6464V34.5452V34.541ZM65.1034 27.9886H67.022V42.1861H65.1034V27.9886ZM77.545 41.7732C76.5691 42.1278 75.5055 42.4114 74.4544 42.4114C72.8111 42.4114 71.5557 41.9442 70.6965 40.9975C69.8498 40.0924 69.4286 38.8119 69.4286 37.1603C69.4286 35.7547 69.829 34.591 70.6298 33.6818C71.4765 32.735 72.5984 32.2637 73.9873 32.2637C76.861 32.2637 78.2875 34.1155 78.2875 37.7233V37.8109H71.4806C71.5182 39.5168 72.8236 40.8139 74.5379 40.8139C74.9675 40.8139 75.4763 40.7264 76.0602 40.5428C76.6692 40.3593 77.0696 40.1675 77.545 39.7587V41.7732ZM76.2396 36.3303C76.2229 35.6254 76.0185 35.0457 75.6306 34.5869C75.2302 34.103 74.6755 33.8611 73.9539 33.8611C73.2324 33.8611 72.6401 34.1114 72.198 34.6077C71.8101 35.054 71.5724 35.6296 71.489 36.3344H76.2396V36.3303ZM86.8627 33.6276V27.9886H88.798V42.1861H86.942V40.7597L87.0296 40.8473C86.3289 41.8942 85.2277 42.4114 83.7388 42.4114C82.354 42.4114 81.278 41.8567 80.5189 40.743C79.8724 39.7879 79.5512 38.5909 79.5512 37.1603C79.5512 35.7297 79.9016 34.6619 80.6023 33.7485C81.3739 32.7559 82.4291 32.2637 83.7554 32.2637C85.1568 32.2637 86.1996 32.7141 86.8627 33.6276ZM82.2164 39.6503C82.6877 40.4344 83.3258 40.8181 84.1433 40.8181C85.0401 40.8181 85.7324 40.4427 86.2329 39.6795C86.6542 39.0288 86.8627 38.2572 86.8627 37.3563C86.8627 36.4012 86.6458 35.6087 86.2162 34.9706C85.7157 34.2323 85.0234 33.8653 84.1266 33.8653C83.2299 33.8653 82.6168 34.2323 82.1705 34.9706C81.7951 35.5879 81.6033 36.3636 81.6033 37.2979C81.6033 38.2322 81.8118 38.9829 82.2206 39.6586L82.2164 39.6503ZM91.7927 32.4722H93.7113V42.1861H91.7927V32.4722ZM100.038 40.2175L102.604 32.4722H104.568L101.023 42.3363C100.56 43.6168 100.147 44.5093 99.784 45.0056C99.1542 45.8899 98.3159 46.332 97.2773 46.332C96.8519 46.332 96.4056 46.2611 95.9885 46.186L96.1178 44.5594C96.4181 44.6595 96.6976 44.7345 97.0187 44.7345C97.6444 44.7345 98.1616 44.3925 98.5703 43.6835C98.8706 43.1705 99.0124 42.7659 99.0124 42.4698C99.0124 42.4364 98.9081 42.1278 98.6787 41.498L95.4088 32.4722H97.5192L100.038 40.2175ZM113.306 41.7732C112.33 42.1278 111.266 42.4114 110.215 42.4114C108.572 42.4114 107.317 41.9442 106.457 40.9975C105.611 40.0924 105.189 38.8119 105.189 37.1603C105.189 35.7547 105.59 34.591 106.391 33.6818C107.237 32.735 108.359 32.2637 109.748 32.2637C112.622 32.2637 114.048 34.1155 114.048 37.7233V37.8109H107.242C107.279 39.5168 108.585 40.8139 110.299 40.8139C110.728 40.8139 111.237 40.7264 111.821 40.5428C112.43 40.3593 112.83 40.1675 113.306 39.7587V41.7732ZM112 36.3303C111.984 35.6254 111.779 35.0457 111.391 34.5869C110.991 34.103 110.436 33.8611 109.715 33.8611C108.993 33.8611 108.401 34.1114 107.959 34.6077C107.571 35.054 107.333 35.6296 107.25 36.3344H112V36.3303ZM116.772 37.2562C116.034 36.7307 115.662 36.0717 115.662 35.275C115.662 34.2949 116.004 33.5316 116.697 32.9936C117.31 32.5056 118.119 32.2637 119.124 32.2637C119.896 32.2637 120.663 32.4389 121.397 32.6599L121.231 34.4075C120.901 34.2073 120.609 34.1114 120.23 34.0196C119.833 33.9112 119.525 33.8611 119.299 33.8611C118.882 33.8611 118.524 33.9404 118.228 34.0947C117.877 34.2866 117.71 34.5577 117.71 34.9205C117.71 35.3877 118.027 35.8131 118.728 36.1801L120.734 37.1978C121.468 37.7317 121.839 38.4449 121.839 39.3541C121.839 40.2634 121.502 41.0642 120.822 41.6314C120.192 42.1528 119.387 42.4114 118.428 42.4114C117.468 42.4114 116.551 42.2946 115.721 41.84L115.829 40.0674C116.547 40.5387 117.218 40.8139 118.086 40.8139C118.557 40.8139 118.945 40.7138 119.249 40.522C119.612 40.2926 119.787 39.9631 119.787 39.5293C119.787 39.0955 119.47 38.6993 118.77 38.3156C118.328 38.0904 117.66 37.7359 116.768 37.252L116.772 37.2562ZM123.867 32.4722H125.785V42.1861H123.867V32.4722ZM91.7927 27.9886H93.7113V29.9072H91.7927V27.9886ZM123.867 27.9886H125.785V29.9072H123.867V27.9886ZM58.7679 16.9692C59.4352 15.9932 60.432 15.5094 61.7459 15.5094C63.0597 15.5094 63.9522 16.085 64.4653 17.2319C64.7405 16.744 65.1326 16.3477 65.6373 16.0391C66.2003 15.6846 66.7884 15.5094 67.4099 15.5094C69.6705 15.5094 70.805 16.7648 70.805 19.2298V25.4318H68.8697V19.6636C68.8697 17.9076 68.3108 17.1068 67.2639 17.1068C66.4256 17.1068 65.7999 17.478 65.3703 18.2246C65.0242 18.8419 64.849 19.6135 64.849 20.5353V25.4318H62.9137V19.6636C62.9137 17.9076 62.359 17.1068 61.3079 17.1068C60.4696 17.1068 59.8356 17.4739 59.3977 18.2246C59.0515 18.8419 58.8763 19.6135 58.8763 20.5353V25.4318H56.941V15.7179H58.7637V16.9692H58.7679ZM75.5889 16.9942C75.8141 16.6105 76.1186 16.281 76.4982 16.0099C76.9736 15.6804 77.4825 15.5094 78.0163 15.5094C78.4376 15.5094 78.8547 15.572 79.2676 15.6554V17.428C78.8922 17.2695 78.6086 17.2069 78.1957 17.2069C77.3282 17.2069 76.6733 17.6324 76.2229 18.4999C75.8642 19.1839 75.6848 20.0181 75.6848 21.0066V25.436H73.7663V15.7221H75.5889V16.9984V16.9942ZM87.0588 24.3349C86.3581 25.215 85.3904 25.6529 84.16 25.6529C81.791 25.6529 80.5689 24.6394 80.5689 22.5957C80.5689 21.4737 81.0986 20.6228 82.1455 20.0514C82.9797 19.5926 83.964 19.3633 85.0943 19.3633C85.8284 19.3633 86.4248 19.3758 86.8752 19.405C86.8502 17.8242 86.2246 17.1027 84.6105 17.1027C83.4718 17.1027 82.6293 17.4363 81.7576 18.162L81.645 16.4353C82.6585 15.8431 83.7054 15.5094 84.8816 15.5094C87.4842 15.5094 88.7938 16.8649 88.7938 19.5343V23.4715C88.7938 24.0972 88.798 24.802 88.8898 25.4318H87.0546V24.3391L87.0588 24.3349ZM86.8794 20.894C86.7584 20.894 86.5958 20.8856 86.3956 20.8773C86.1537 20.8564 85.966 20.8439 85.8367 20.8439C83.6261 20.8439 82.6168 21.457 82.6168 22.5957C82.6168 23.0336 82.7836 23.384 83.1173 23.6551C83.4551 23.922 83.8514 24.0555 84.306 24.0555C85.0859 24.0555 85.7032 23.8386 86.1662 23.4173C86.6417 22.9836 86.8794 22.3955 86.8794 21.6447V20.894ZM93.6654 17.0401C93.9448 16.5896 94.3494 16.2268 94.8749 15.9557C95.4463 15.6595 96.0678 15.5094 96.7393 15.5094C99.1751 15.5094 100.393 16.9191 100.393 19.6802V25.4318H98.4577V20.406C98.4577 19.4091 98.3618 18.6792 98.1741 18.2121C97.8779 17.4905 97.3316 17.1277 96.5266 17.1068C95.5131 17.0735 94.7748 17.4697 94.2994 18.2913C93.9115 18.9378 93.7154 19.822 93.7154 20.9398V25.4318H91.7968V15.7179H93.6695V17.0401H93.6654ZM103.479 15.7179H105.398V25.4318H103.479V15.7179ZM112.005 23.4632L114.57 15.7179H116.534L112.989 25.582C112.526 26.8624 112.113 27.755 111.75 28.2513C111.12 29.1356 110.282 29.5777 109.243 29.5777C108.818 29.5777 108.372 29.5068 107.955 29.4317L108.084 27.8051C108.384 27.9052 108.664 27.9802 108.985 27.9802C109.611 27.9802 110.128 27.6382 110.536 26.925C110.837 26.412 110.974 26.0074 110.974 25.7113C110.974 25.6779 110.87 25.3693 110.641 24.7395L107.371 15.7138H109.481L112 23.459L112.005 23.4632ZM125.785 25.0148C124.809 25.3693 123.746 25.6529 122.695 25.6529C121.051 25.6529 119.796 25.1858 118.932 24.239C118.086 23.3339 117.664 22.0535 117.664 20.4018C117.664 18.9962 118.065 17.8326 118.866 16.9233C119.712 15.9765 120.834 15.5052 122.223 15.5052C125.097 15.5052 126.523 17.3571 126.523 20.9649V21.0524H119.717C119.754 22.7542 121.06 24.0555 122.774 24.0555C123.203 24.0555 123.712 23.9679 124.296 23.7844C124.905 23.6008 125.305 23.409 125.781 23.0002V25.0148H125.785ZM124.48 19.5718C124.463 18.8669 124.259 18.2872 123.871 17.8284C123.47 17.3446 122.916 17.1027 122.194 17.1027C121.472 17.1027 120.88 17.3529 120.438 17.8492C120.05 18.2955 119.812 18.8711 119.729 19.576H124.48V19.5718ZM103.479 11.2301H105.398V13.1487H103.479V11.2301ZM53.7879 19.9347C53.7879 21.6906 53.3833 23.067 52.5575 24.0555C51.6649 25.1232 50.3511 25.6529 48.6327 25.6529C46.9143 25.6529 45.6005 25.1232 44.7079 24.0555C43.8821 23.067 43.4775 21.6864 43.4775 19.9347V12.2144H45.5254V19.6927C45.5254 22.4872 46.5723 23.8302 48.6327 23.8302C50.6931 23.8302 51.74 22.483 51.74 19.6927V12.2144H53.7879V19.9347ZM45.8841 8.56909H47.8027V10.6837H45.8841V8.56909ZM49.4669 8.56909H51.3855V10.6837H49.4669V8.56909Z" fill="#1D1D1B"/>
</svg>
